<svg width="36" height="36" viewBox="0 0 36 36" fill="none" xmlns="http://www.w3.org/2000/svg">
<path d="M18 22.5C20.4853 22.5 22.5 20.4853 22.5 18C22.5 15.5147 20.4853 13.5 18 13.5C15.5147 13.5 13.5 15.5147 13.5 18C13.5 20.4853 15.5147 22.5 18 22.5Z" stroke="black" stroke-width="3.33333" stroke-linecap="round" stroke-linejoin="round"/>
<path d="M28.5 10.5C30.1569 10.5 31.5 9.15685 31.5 7.5C31.5 5.84315 30.1569 4.5 28.5 4.5C26.8431 4.5 25.5 5.84315 25.5 7.5C25.5 9.15685 26.8431 10.5 28.5 10.5Z" stroke="black" stroke-width="3.33333" stroke-linecap="round" stroke-linejoin="round"/>
<path d="M7.5 31.5C9.15685 31.5 10.5 30.1569 10.5 28.5C10.5 26.8431 9.15685 25.5 7.5 25.5C5.84315 25.5 4.5 26.8431 4.5 28.5C4.5 30.1569 5.84315 31.5 7.5 31.5Z" stroke="black" stroke-width="3.33333" stroke-linecap="round" stroke-linejoin="round"/>
<path d="M15.6001 32.8501C18.4842 33.324 21.444 32.9449 24.1156 31.7595C26.7873 30.5742 29.0544 28.6341 30.6384 26.1777C32.2224 23.7213 33.0542 20.8557 33.0317 17.9329C33.0092 15.0102 32.1333 12.1577 30.5116 9.72607" stroke="black" stroke-width="3.33333" stroke-linecap="round" stroke-linejoin="round"/>
<path d="M20.2502 3.14994C17.3779 2.7113 14.44 3.11636 11.7935 4.31588C9.14697 5.51541 6.90583 7.45776 5.34238 9.90692C3.77893 12.3561 2.96046 15.2066 2.98644 18.1121C3.01242 21.0177 3.88172 23.8531 5.48872 26.2739" stroke="black" stroke-width="3.33333" stroke-linecap="round" stroke-linejoin="round"/>
</svg>
