<svg width="32" height="32" viewBox="0 0 32 32" fill="none" xmlns="http://www.w3.org/2000/svg">
<g clip-path="url(#clip0_1018_429)">
<path d="M16 20C18.2091 20 20 18.2091 20 16C20 13.7909 18.2091 12 16 12C13.7909 12 12 13.7909 12 16C12 18.2091 13.7909 20 16 20Z" stroke="white" stroke-width="3.33333" stroke-linecap="round" stroke-linejoin="round"/>
<path d="M25.3334 9.33333C26.8061 9.33333 28 8.13943 28 6.66667C28 5.19391 26.8061 4 25.3334 4C23.8606 4 22.6667 5.19391 22.6667 6.66667C22.6667 8.13943 23.8606 9.33333 25.3334 9.33333Z" stroke="white" stroke-width="3.33333" stroke-linecap="round" stroke-linejoin="round"/>
<path d="M6.66667 28C8.13943 28 9.33333 26.8061 9.33333 25.3333C9.33333 23.8605 8.13943 22.6666 6.66667 22.6666C5.19391 22.6666 4 23.8605 4 25.3333C4 26.8061 5.19391 28 6.66667 28Z" stroke="white" stroke-width="3.33333" stroke-linecap="round" stroke-linejoin="round"/>
<path d="M13.8666 29.2001C16.4303 29.6213 19.0612 29.2844 21.436 28.2307C23.8108 27.177 25.826 25.4525 27.234 23.269C28.642 21.0856 29.3814 18.5384 29.3614 15.9404C29.3414 13.3424 28.5628 10.8069 27.1213 8.64539" stroke="white" stroke-width="3.33333" stroke-linecap="round" stroke-linejoin="round"/>
<path d="M18 2.80002C15.4468 2.41013 12.8353 2.77018 10.4829 3.83642C8.13043 4.90267 6.13831 6.6292 4.74857 8.80623C3.35883 10.9833 2.63131 13.5171 2.6544 16.0998C2.67749 18.6825 3.45021 21.2029 4.87865 23.3547" stroke="white" stroke-width="3.33333" stroke-linecap="round" stroke-linejoin="round"/>
</g>
<defs>
<clipPath id="clip0_1018_429">
<rect width="32" height="32" fill="white"/>
</clipPath>
</defs>
</svg>
